<svg width="121" height="121" viewBox="0 0 121 121" fill="none" xmlns="http://www.w3.org/2000/svg">
<mask id="mask0_54_115" style="mask-type:alpha" maskUnits="userSpaceOnUse" x="0" y="0" width="121" height="121">
<rect width="121" height="121" fill="#D9D9D9"/>
</mask>
<g mask="url(#mask0_54_115)">
<path d="M36.2999 64.7013L53.4417 81.8431C54.2819 82.6834 54.6811 83.6637 54.6391 84.7841C54.597 85.9044 54.1699 86.8847 53.3576 87.725C52.5173 88.5653 51.53 88.9924 50.3956 89.0065C49.2612 89.0204 48.2739 88.6072 47.4336 87.767L23.1076 63.4409C22.2673 62.6006 21.8472 61.6203 21.8472 60.5C21.8472 59.3797 22.2673 58.3993 23.1076 57.5591L47.5177 33.149C48.358 32.3087 49.3453 31.8956 50.4797 31.9096C51.6141 31.9235 52.6014 32.3507 53.4417 33.1909C54.254 34.0312 54.6671 35.0255 54.681 36.174C54.6951 37.3223 54.2819 38.3166 53.4417 39.1569L36.2999 56.2986H96.716C97.9204 56.2986 98.9217 56.6978 99.72 57.496C100.518 58.2943 100.917 59.2956 100.917 60.5C100.917 61.7044 100.518 62.7057 99.72 63.5039C98.9217 64.3022 97.9204 64.7013 96.716 64.7013H36.2999Z" fill="#333333"/>
</g>
</svg>
