<svg width="52" height="52" viewBox="0 0 52 52" fill="none" xmlns="http://www.w3.org/2000/svg">
<path fill-rule="evenodd" clip-rule="evenodd" d="M26 52C40.3594 52 52 40.3594 52 26C52 11.6406 40.3594 0 26 0C11.6406 0 0 11.6406 0 26C0 40.3594 11.6406 52 26 52ZM14 19.375C14 18.0638 15.0498 17 16.3438 17H36.6562C37.9502 17 39 18.0638 39 19.375C39 20.1221 38.6533 20.8247 38.0625 21.275L27.4375 29.35C26.8809 29.7706 26.1191 29.7706 25.5625 29.35L14.9375 21.275C14.3467 20.8247 14 20.1221 14 19.375ZM14 32.8333V22.5417L24.625 30.6167C25.7383 31.4628 27.2617 31.4628 28.375 30.6167L39 22.5417V32.8333C39 34.5799 37.5986 36 35.875 36H17.125C15.4014 36 14 34.5799 14 32.8333Z" fill="white"/>
</svg>
