<svg width="52" height="52" viewBox="0 0 52 52" fill="none" xmlns="http://www.w3.org/2000/svg">
<path fill-rule="evenodd" clip-rule="evenodd" d="M26 52C40.3594 52 52 40.3594 52 26C52 11.6406 40.3594 0 26 0C11.6406 0 0 11.6406 0 26C0 40.3594 11.6406 52 26 52ZM19.7371 14.0695C20.6843 13.8107 21.6754 14.2941 22.0514 15.2022V15.2071L24.0044 19.8944C24.3365 20.6903 24.107 21.6082 23.4381 22.155L21.0309 24.1227C22.6568 27.5601 25.4399 30.3432 28.8773 31.9691L30.8498 29.5619C31.3918 28.893 32.3146 28.6635 33.1105 28.9956L37.7978 30.9486C38.7059 31.3246 39.1893 32.3157 38.9305 33.2629L37.7587 37.5596C37.5244 38.4092 36.7529 39 35.874 39C23.7945 39 14 29.2055 14 17.126C14 16.2471 14.5908 15.4756 15.4404 15.2413L19.7371 14.0695Z" fill="white"/>
</svg>
