<svg xmlns="http://www.w3.org/2000/svg" width="329" height="329" viewBox="0 0 329 329">
  <g id="circleU" transform="translate(-219 -1096)">
    <circle id="Ellipse_1" data-name="Ellipse 1" cx="164.5" cy="164.5" r="164.5" transform="translate(219 1096)" fill="#212529"/>
    <path id="Path_47" data-name="Path 47" d="M21.75-38H14.8V-8.2a2.3,2.3,0,0,1-2.3,2.6A2.289,2.289,0,0,1,9.95-8.15V-38H2V-9.1C2-3.05,6,.6,12,.6c5.8,0,9.75-3.7,9.75-9.75ZM43.7-19.25,49.8-38H41.7L38.6-25.3h-.2L35.25-38h-8.5L32.9-19.3,26.75,0H34.9l3.05-12.45h.2L41.3,0h8.5Zm24.65-21.7L55.3,5.35h6.5l13-46.3ZM101.55-38H94.6V-8.2a2.3,2.3,0,0,1-2.3,2.6,2.289,2.289,0,0,1-2.55-2.55V-38H81.8V-9.1c0,6.05,4,9.7,10,9.7,5.8,0,9.75-3.7,9.75-9.75Zm14.65,0h-7.95V0h7.95Z" transform="translate(325 1276)" fill="#fff"/>
  </g>
</svg>
