<?xml version="1.0" encoding="UTF-8"?>
<svg xmlns="http://www.w3.org/2000/svg" version="1.1" viewBox="0 0 330 327">
  <!-- Generator: Adobe Illustrator 29.3.0, SVG Export Plug-In . SVG Version: 2.1.0 Build 146)  -->
  <defs>
    <style>
      .st0 {
        fill: #212529;
      }

      .st1, .st2 {
        fill: #fff;
      }

      .st2 {
        font-family: Balboa-Bold, Balboa;
        font-size: 49.2px;
        font-weight: 700;
      }

      .st3 {
        display: none;
      }
    </style>
  </defs>
  <g id="Layer_1">
    <g id="circles">
      <ellipse id="Ellipse_2" class="st0" cx="165.3" cy="163.2" rx="165" ry="163.5"/>
    </g>
  </g>
  <g id="Layer_2" class="st3">
    <path id="Path_48" class="st1" d="M85.9,166.5c0-4.8-2.8-8.9-6.9-12.5-3.3-2.9-4.4-4.7-4.4-6.8v-.2c0-1.8.9-2.8,2.6-2.8s3,.7,3,3.9c0,1.2-.1,2.4-.3,3.5l5.7.4c.2-1.5.3-3,.3-4.5,0-5.1-3-9.3-9.4-9.3s-9.8,4.7-9.8,9.3v.3c0,4.2,2.2,7.3,6.1,11,3.9,3.8,5.2,5.6,5.2,8.3v.5c0,1.7-1,3.1-2.6,3.1s-2.8-.9-2.8-4c0-1.2,0-2.4.2-3.6l-5.8-.4c-.3,1.5-.4,3-.3,4.5,0,6,3.3,9.3,9.3,9.3s9.8-3.8,9.8-9.7v-.6ZM112,148.3c0-7.4-4.6-10-9.9-10s-10,2.7-10,10v18.6c0,7,4.7,9.8,10,9.8s9.9-2.8,9.9-9.8v-18.6ZM104.1,168.7c0,1.6-.7,2.4-2.1,2.4-1.2,0-2.2-.8-2.2-2,0-.1,0-.3,0-.4v-22.1c0-1.6.8-2.4,2.2-2.4,1.2,0,2.1,1,2.1,2.1,0,0,0,.2,0,.3v22.1ZM134.6,138.9h-16.2v37.2h7.8v-15.3h7.1v-6.2h-7.1v-9.7h8.4v-6.1ZM158.8,138.9h-20.5v6.1h6.3v31.2h7.8v-31.2h6.4v-6.1ZM185.9,138.9l-2.3,24.1h-.2l-2.7-24.1h-5.8l-2.7,24h-.2l-2.2-24h-7.7l5.3,37.2h7.7l2.4-20.7h.4l2.5,20.7h7.7l5.3-37.2h-7.6ZM210.3,138.9h-8.9l-6.2,37.2h6.7l.5-4.7h5.6l.6,4.7h7.9l-6.3-37.2ZM203,165.4l2-16.3h.3l1.9,16.3h-4.1ZM241.3,176.2c-.4-1.1-.7-3.1-.7-6.6v-2.8c0-4.9-.8-7.4-4.9-8.3h0c4.2-1.5,5.4-4.8,5.4-10s-3.2-9.5-8.8-9.5h-10.9v37.2h7.8v-14.6h1c1.8,0,2.6,1.4,2.8,5.5.1,2.3.1,3.6.2,7,0,.7.2,1.4.5,2.1h7.5ZM233.5,149.8c0,4.2-.8,5.7-2.8,5.7h-1.5v-10.4h1.6c1.6,0,2.7,1,2.7,4.8h0ZM263.3,170h-8.5v-10.2h7.1v-6.2h-7.1v-8.7h8.4v-6.1h-16.2v37.2h16.3v-6.1Z"/>
  </g>
  <g id="Layer_3" class="st3">
    <text class="st2" transform="translate(61.1 175.9)"><tspan x="0" y="0">LEADERSHIP</tspan></text>
  </g>
  <g id="Layer_4">
    <g>
      <path class="st1" d="M79,179.7h-16.3v-37.4h7.8v31.3h8.5v6.1Z"/>
      <path class="st1" d="M98.1,179.7h-16.3v-37.4h16.2v6.1h-8.4v8.7h7.1v6.2h-7.1v10.2h8.5v6.2Z"/>
      <path class="st1" d="M120.7,179.7h-8l-.6-4.7h-5.7l-.5,4.7h-6.7l6.2-37.4h9l6.3,37.4ZM111.3,168.9l-1.9-16.3h-.3l-2,16.3h4.1Z"/>
      <path class="st1" d="M143.2,170.6c0,6.2-3.6,9.1-9.7,9.1h-10.3v-37.4h10.1c6.5,0,9.9,3.3,9.9,9.9v18.5ZM135.4,151.9c0-2.7-.7-3.6-2.9-3.6h-1.4v25.2h1.4c1.9,0,2.9-.8,2.9-2.8v-18.9Z"/>
      <path class="st1" d="M163.6,179.7h-16.3v-37.4h16.2v6.1h-8.4v8.7h7.1v6.2h-7.1v10.2h8.5v6.2Z"/>
      <path class="st1" d="M179.1,179.7c-.3-.4-.5-1.1-.5-2.1,0-3.3-.1-4.7-.2-7-.2-4.1-1-5.6-2.8-5.6h-1v14.6h-7.8v-37.4h10.9c5.6,0,8.9,3.4,8.9,9.6s-1.3,8.5-5.5,9.9h0c4.1,1,4.9,3.6,4.9,8.5v2.8c0,3.5.3,5.5.7,6.6h-7.5ZM176,148.3h-1.6v10.5h1.5c2,0,2.8-1.5,2.8-5.7s-1.1-4.8-2.7-4.8Z"/>
      <path class="st1" d="M208.9,170.5c0,5.9-4.2,9.7-9.9,9.7s-9.3-3.3-9.3-9.3.1-3.5.3-4.5l5.9.4c-.1.7-.2,2-.2,3.6,0,3.1,1.2,4,2.9,4s2.6-1.4,2.6-3.1v-.5c0-2.7-1.3-4.6-5.2-8.4-3.9-3.7-6.1-6.9-6.1-11.1v-.3c0-4.7,3.5-9.4,9.8-9.4s9.4,4.2,9.4,9.3,0,3.1-.3,4.5l-5.8-.4c.1-.8.3-2.2.3-3.5,0-3.2-1.3-3.9-3-3.9s-2.7,1-2.7,2.8v.2c0,2.1,1.1,3.8,4.4,6.8,4.1,3.6,6.9,7.7,6.9,12.6v.6Z"/>
      <path class="st1" d="M233.3,179.7h-7.8v-16.2h-4.7v16.2h-7.8v-37.4h7.8v15h4.7v-15h7.8v37.4Z"/>
      <path class="st1" d="M245.5,179.7h-7.8v-37.4h7.8v37.4Z"/>
      <path class="st1" d="M260.3,166.7h-2.7v13h-7.8v-37.4h9.7c6.6,0,9.9,3,9.9,11.9s-3.6,12.6-9.2,12.6ZM259,148.3h-1.3v12.3h1.4c1.7,0,2.8-1.6,2.8-6.6s-1-5.7-2.8-5.7Z"/>
    </g>
  </g>
</svg>