<svg xmlns="http://www.w3.org/2000/svg" width="330" height="327" viewBox="0 0 330 327">
  <g id="circles" transform="translate(-783 -1093)">
    <ellipse id="Ellipse_2" data-name="Ellipse 2" cx="165" cy="163.5" rx="165" ry="163.5" transform="translate(783 1093)" fill="#212529"/>
    <path id="Path_48" data-name="Path 48" d="M21.021-9.7c0-4.8-2.842-8.869-6.909-12.5-3.283-2.94-4.361-4.7-4.361-6.762V-29.2c0-1.813.931-2.793,2.646-2.793s2.989.735,2.989,3.92a22.128,22.128,0,0,1-.294,3.528l5.733.392a32.453,32.453,0,0,0,.294-4.459c0-5.1-2.989-9.261-9.359-9.261-6.272,0-9.751,4.655-9.751,9.31v.343c0,4.165,2.156,7.3,6.076,11.025,3.92,3.773,5.194,5.635,5.194,8.33v.539c0,1.715-.98,3.087-2.6,3.087-1.666,0-2.842-.882-2.842-3.969a20.064,20.064,0,0,1,.245-3.577l-5.831-.392a23.872,23.872,0,0,0-.343,4.508c0,5.978,3.283,9.261,9.261,9.261,5.635,0,9.849-3.773,9.849-9.653Zm26.117-18.13c0-7.4-4.606-10.045-9.9-10.045S27.195-35.133,27.195-27.832V-9.261c0,7.007,4.7,9.849,10.045,9.849,5.243,0,9.9-2.842,9.9-9.849ZM39.3-7.5c0,1.568-.735,2.352-2.058,2.352a2.118,2.118,0,0,1-2.2-2.4V-29.6c0-1.568.833-2.4,2.156-2.4A2.122,2.122,0,0,1,39.3-29.6ZM69.776-37.24H53.606V0H61.4V-15.337h7.1v-6.174H61.4v-9.653h8.379Zm24.157,0H73.4v6.076h6.321V0h7.84V-31.164h6.37Zm27.146,0-2.3,24.059h-.2L115.885-37.24H110.1l-2.695,24.01h-.245l-2.205-24.01H97.265L102.606,0h7.742l2.45-20.678h.392L115.64,0h7.693l5.341-37.24Zm24.353,0h-8.918L130.34,0H137l.539-4.655h5.635L143.766,0H151.7ZM138.18-10.731,140.14-27h.294L142.3-10.731ZM176.5,0c-.441-1.127-.735-3.136-.735-6.615V-9.408c0-4.851-.833-7.448-4.9-8.33v-.147c4.165-1.372,5.439-4.606,5.439-9.849,0-6.125-3.234-9.506-8.82-9.506H156.6V0H164.4V-14.553h1.029c1.813,0,2.6,1.421,2.793,5.537.1,2.254.147,3.626.245,6.958A4.006,4.006,0,0,0,169,0Zm-7.84-26.411c0,4.165-.784,5.684-2.793,5.684H164.4V-31.164h1.568C167.58-31.164,168.658-30.184,168.658-26.411ZM198.5-6.125h-8.477V-16.317h7.1v-6.174h-7.1v-8.673H198.4V-37.24h-16.17V0H198.5Z" transform="translate(849 1271)" fill="#fff"/>
  </g>
</svg>
