<svg width="100" height="100" viewBox="0 0 100 100" fill="none" xmlns="http://www.w3.org/2000/svg">
<g clip-path="url(#clip0_105_64)">
<path d="M24.3926 45.5505V54.4493L31.0508 49.9893L24.3926 45.5505Z" fill="#343A40"/>
<path d="M47.3475 39.1038V26.6963L26.5273 40.5834L35.8277 46.7977L47.3475 39.1038Z" fill="#343A40"/>
<path d="M73.4725 40.5834L52.6523 26.6963V39.1038L64.1721 46.7977L73.4725 40.5834Z" fill="#343A40"/>
<path d="M26.5273 59.4167L47.3475 73.3038V60.8963L35.8277 53.2024L26.5273 59.4167Z" fill="#343A40"/>
<path d="M52.6523 60.8963V73.3038L73.4725 59.4167L64.1721 53.2024L52.6523 60.8963Z" fill="#343A40"/>
<path d="M49.9894 43.7117L40.6045 49.9894L49.9894 56.2883L59.3954 49.9894L49.9894 43.7117Z" fill="#343A40"/>
<path d="M49.9894 0C22.3843 0 0 22.3843 0 49.9894C0 77.5946 22.3843 99.9789 49.9894 99.9789C77.5946 99.9789 99.9789 77.5946 99.9789 49.9894C100 22.3843 77.6157 0 49.9894 0ZM80.9131 59.4166C80.9131 59.5434 80.9131 59.6491 80.892 59.7548C80.892 59.7971 80.8708 59.8394 80.8708 59.8605C80.8497 59.945 80.8497 60.0084 80.8286 60.093C80.8074 60.1353 80.8074 60.1775 80.7863 60.2198C80.7652 60.2832 80.744 60.3466 80.7229 60.4101C80.7017 60.4523 80.6806 60.4946 80.6595 60.5369C80.6383 60.6003 80.5961 60.6637 80.5749 60.706C80.5538 60.7483 80.5327 60.7905 80.4904 60.8328C80.4481 60.8962 80.427 60.9385 80.3847 61.0019C80.3636 61.0442 80.3213 61.0864 80.3001 61.1076C80.2579 61.1499 80.2156 61.2133 80.1733 61.2555C80.131 61.2978 80.1099 61.319 80.0676 61.3612C80.0254 61.4035 79.962 61.4458 79.9197 61.4881C79.8774 61.5092 79.8351 61.5515 79.7929 61.5726C79.7717 61.5726 79.7717 61.5937 79.7506 61.6149L51.4902 80.4481C51.0463 80.744 50.539 80.892 50.0106 80.892C49.5033 80.892 48.9748 80.744 48.531 80.4481L20.2706 61.636C20.2494 61.636 20.2494 61.6149 20.2283 61.5937C20.186 61.5726 20.1437 61.5303 20.1015 61.5092C20.0592 61.4669 19.9958 61.4246 19.9535 61.3824C19.9112 61.3401 19.8901 61.319 19.8478 61.2767C19.8055 61.2344 19.7633 61.1921 19.721 61.1287C19.6999 61.0865 19.6576 61.0442 19.6364 61.023C19.5942 60.9808 19.5519 60.9173 19.5308 60.8539C19.5096 60.8117 19.4885 60.7694 19.4462 60.7271C19.4039 60.6637 19.3828 60.6003 19.3617 60.558C19.3405 60.5157 19.3194 60.4735 19.2982 60.4312C19.2771 60.3678 19.256 60.3044 19.2348 60.241C19.2137 60.1987 19.2137 60.1564 19.1926 60.1141C19.1714 60.0507 19.1503 59.9662 19.1503 59.8816C19.1503 59.8394 19.1291 59.7971 19.1291 59.7759C19.108 59.6703 19.108 59.5434 19.108 59.4378V40.5834C19.108 40.4566 19.108 40.3509 19.1291 40.2452C19.1291 40.2029 19.1503 40.1606 19.1503 40.1395C19.1714 40.055 19.1714 39.9915 19.1926 39.907C19.2137 39.8647 19.2137 39.8224 19.2348 39.7802C19.256 39.7168 19.2771 39.6533 19.2982 39.5899C19.3194 39.5477 19.3405 39.5054 19.3617 39.4631C19.3828 39.3997 19.4251 39.3363 19.4462 39.294C19.4673 39.2517 19.4885 39.2095 19.5308 39.1672C19.573 39.1038 19.5942 39.0615 19.6364 38.9981C19.6576 38.9558 19.6999 38.9135 19.721 38.8924C19.7633 38.8501 19.8055 38.7867 19.8478 38.7445C19.8901 38.7022 19.9112 38.681 19.9535 38.6388C19.9958 38.5965 20.0592 38.5542 20.1015 38.5119C20.1437 38.4908 20.186 38.4485 20.2283 38.4274C20.2494 38.4274 20.2494 38.4063 20.2706 38.3851L48.531 19.5519C49.4187 18.96 50.5813 18.96 51.469 19.5519L79.7294 38.3851C79.7506 38.3851 79.7506 38.4063 79.7717 38.4274C79.814 38.4485 79.8563 38.4908 79.8985 38.5119C79.9408 38.5542 80.0042 38.5965 80.0465 38.6388C80.0888 38.681 80.1099 38.7022 80.1522 38.7445C80.1945 38.7867 80.2367 38.829 80.279 38.8924C80.3213 38.9347 80.3424 38.977 80.3636 38.9981C80.4058 39.0404 80.4481 39.1038 80.4692 39.1672C80.4904 39.2095 80.5115 39.2517 80.5538 39.294C80.5961 39.3574 80.6172 39.3997 80.6383 39.4631C80.6595 39.5054 80.6806 39.5477 80.7017 39.5899C80.7229 39.6533 80.744 39.7168 80.7652 39.7802C80.7863 39.8224 80.7863 39.8647 80.8074 39.907C80.8286 39.9704 80.8497 40.055 80.8497 40.1395C80.8497 40.1818 80.8708 40.2241 80.8708 40.2452C80.892 40.3509 80.892 40.4777 80.892 40.5834V59.4166H80.9131Z" fill="#343A40"/>
<path d="M75.6074 54.4493V45.5505L68.9492 49.9893L75.6074 54.4493Z" fill="#343A40"/>
</g>
<defs>
<clipPath id="clip0_105_64">
<rect width="100" height="100" fill="white"/>
</clipPath>
</defs>
</svg>
