<svg width="100" height="98" viewBox="0 0 100 98" fill="none" xmlns="http://www.w3.org/2000/svg">
<g clip-path="url(#clip0_105_82)">
<path fill-rule="evenodd" clip-rule="evenodd" d="M50.1672 0C22.408 0 0 22.4863 0 50.3425C0 72.4932 14.3813 91.2877 34.4482 98C37.1237 98.3356 37.7926 96.9932 37.7926 95.6507V86.9247C23.7458 89.9452 20.7358 80.2123 20.7358 80.2123C18.3946 74.5068 15.0502 72.8288 15.0502 72.8288C10.3679 69.8082 15.3846 69.8082 15.3846 69.8082C20.4013 70.1438 23.0769 74.8425 23.0769 74.8425C27.4248 82.5616 34.7826 80.2123 37.7926 78.8699C38.1271 75.5137 39.4649 73.5 41.1371 72.1575C30.1003 70.8151 18.3946 66.4521 18.3946 47.3219C18.3946 41.9521 20.4013 37.2534 23.4114 33.8973C22.7425 32.5548 21.0702 27.5205 23.7458 20.4726C23.7458 20.4726 28.0936 19.1301 37.4582 25.5068C41.4716 24.5 45.8194 23.8288 50.1672 23.8288C54.5151 23.8288 58.8629 24.5 62.8763 25.5068C72.5753 19.1301 76.5886 20.4726 76.5886 20.4726C79.2642 27.5205 77.592 32.5548 76.9231 33.8973C80.2676 37.2534 81.9398 41.9521 81.9398 47.3219C81.9398 66.7877 70.2341 70.8151 59.1973 72.1575C60.8696 73.8356 62.5418 76.8562 62.5418 81.5548V95.3151C62.5418 96.6575 63.5452 98.3356 65.8863 97.6644C85.9532 90.9521 100 72.1575 100 50.0068C100.334 22.4863 77.9264 0 50.1672 0Z" fill="#343A40"/>
</g>
<defs>
<clipPath id="clip0_105_82">
<rect width="100" height="98" fill="white"/>
</clipPath>
</defs>
</svg>
