<svg width="100" height="100" viewBox="0 0 100 100" fill="none" xmlns="http://www.w3.org/2000/svg">
<g clip-path="url(#clip0_105_74)">
<path fill-rule="evenodd" clip-rule="evenodd" d="M100 50C100 77.6142 77.6142 100 50 100C22.3858 100 0 77.6142 0 50C0 22.3858 22.3858 0 50 0C77.6142 0 100 22.3858 100 50ZM34.9994 25.6262H65.0001C70.2107 25.6262 74.3771 29.7926 74.3736 34.9997V65.0004C74.3736 70.2075 70.2072 74.3738 65.0001 74.3738H34.9994C29.7923 74.3738 25.626 70.2075 25.626 65.0004V34.9997C25.626 29.7926 29.7923 25.6262 34.9994 25.6262ZM68.7502 31.2496H67.7095H60.4175V39.5823H68.7502V31.2496ZM49.9998 41.4591C47.2904 41.4591 44.581 42.9161 43.124 45.0011C42.0833 46.4581 41.4589 48.1268 41.4589 50C41.4589 54.7908 45.4171 58.5409 49.9998 58.5409C54.5824 58.5409 58.5407 54.7908 58.5407 50C58.5407 48.1268 57.9162 46.4581 56.8755 45.0011C55.415 42.9161 52.7092 41.4591 49.9998 41.4591ZM65.0001 69.583C67.4978 69.583 69.5828 67.5016 69.5828 65.0004L69.5899 45.0011H62.2978C62.9222 46.4581 63.3385 48.3349 63.3385 50C63.3385 57.2921 57.2953 63.3352 50.0033 63.3352C42.7113 63.3352 36.6681 57.2921 36.6681 50C36.6681 48.3349 37.0844 46.4581 37.7088 45.0011H30.4168V65.0004C30.4168 67.4981 32.4982 69.583 34.9994 69.583H65.0001Z" fill="#343A40"/>
</g>
<defs>
<clipPath id="clip0_105_74">
<rect width="100" height="100" fill="white"/>
</clipPath>
</defs>
</svg>
