<?xml version="1.0" encoding="utf-8"?>
<!-- Generator: Adobe Illustrator 24.1.3, SVG Export Plug-In . SVG Version: 6.00 Build 0)  -->
<svg version="1.1" id="Layer_1" xmlns="http://www.w3.org/2000/svg" xmlns:xlink="http://www.w3.org/1999/xlink" x="0px" y="0px"
	 viewBox="0 0 2834.6 2834.6" style="enable-background:new 0 0 2834.6 2834.6;" xml:space="preserve">
<style type="text/css">
	.st0{fill:#FFFFFF;}
</style>
<circle cx="1417.3" cy="1417.3" r="1417.3"/>
<path class="st0" d="M1842.5,726.4H992.1c-147.6,0-265.7,118.1-265.7,265.7v850.4c0,147.6,118.1,265.7,265.7,265.7h850.4
	c147.6,0,265.7-118.1,265.7-265.7V992.1C2108.3,844.5,1990.2,726.4,1842.5,726.4L1842.5,726.4z M1919.3,885.8h29.5V1122h-236.2
	V885.8H1919.3z M1222.4,1275.6c41.3-59.1,118.1-100.4,194.9-100.4s153.5,41.3,194.9,100.4c29.5,41.3,47.2,88.6,47.2,141.7
	c0,135.8-112.2,242.1-242.1,242.1c-129.9,0-242.1-106.3-242.1-242.1C1175.2,1364.2,1192.9,1316.9,1222.4,1275.6z M1972.4,1842.5
	c0,70.9-59.1,129.9-129.9,129.9H992.1c-70.9,0-129.9-59.1-129.9-129.9v-566.9h206.7c-17.7,41.3-29.5,94.5-29.5,141.7
	c0,206.7,171.3,378,378,378s378-171.3,378-378c0-47.2-11.8-100.4-29.5-141.7h206.7L1972.4,1842.5z"/>
</svg>
