<?xml version="1.0" encoding="utf-8"?>
<!-- Generator: Adobe Illustrator 24.1.3, SVG Export Plug-In . SVG Version: 6.00 Build 0)  -->
<svg version="1.1" id="Capa_1" xmlns="http://www.w3.org/2000/svg" xmlns:xlink="http://www.w3.org/1999/xlink" x="0px" y="0px"
	 viewBox="0 0 112.2 112.2" style="enable-background:new 0 0 112.2 112.2;" xml:space="preserve">
<style type="text/css">
	.st0{fill:#F1F2F2;}
</style>
<g>
	<circle cx="56.1" cy="56.1" r="56.1"/>
	<g>
		<path class="st0" d="M89.6,60.6v23.1H76.2V62.2c0-5.4-1.9-9.1-6.8-9.1c-3.7,0-5.9,2.5-6.9,4.9c-0.4,0.9-0.4,2.1-0.4,3.3v22.5H48.7
			c0,0,0.2-36.5,0-40.3h13.4v5.7c0,0-0.1,0.1-0.1,0.1h0.1v-0.1c1.8-2.7,5-6.7,12.1-6.7C83,42.5,89.6,48.2,89.6,60.6L89.6,60.6z
			 M34.7,24c-4.6,0-7.6,3-7.6,7c0,3.9,2.9,7,7.4,7h0.1c4.7,0,7.6-3.1,7.6-7C42.1,27,39.2,24,34.7,24L34.7,24z M27.9,83.7h13.4V43.4
			H27.9V83.7z"/>
	</g>
</g>
</svg>
