<svg width="100" height="100" viewBox="0 0 100 100" fill="none" xmlns="http://www.w3.org/2000/svg">
<path fill-rule="evenodd" clip-rule="evenodd" d="M100 50C100 77.6142 77.6142 100 50 100C22.3858 100 0 77.6142 0 50C0 22.3858 22.3858 0 50 0C77.6142 0 100 22.3858 100 50ZM79.8574 74.5989V54.0107C79.8574 42.959 73.975 37.8788 66.1319 37.8788C59.8039 37.8788 56.9519 41.4439 55.3476 43.8503V38.7701H43.4046C43.5829 42.1569 43.4046 74.6881 43.4046 74.6881H55.3476V54.6346C55.3476 53.5651 55.3476 52.4955 55.7041 51.6934C56.5954 49.5544 58.5562 47.3262 61.8538 47.3262C66.221 47.3262 67.9144 50.6239 67.9144 55.4367V74.5989H79.8574ZM55.3476 43.8503V43.9394H55.2585L55.3476 43.8503ZM24.1533 27.6292C24.1533 24.0642 26.8271 21.3904 30.9269 21.3904C34.9376 21.3904 37.5223 24.0642 37.6114 27.6292C37.6114 31.1052 35.0267 33.8681 30.8378 33.8681H30.7487C26.738 33.8681 24.1533 31.1052 24.1533 27.6292ZM36.8093 74.5989H24.8663V38.6809H36.8093V74.5989Z" fill="#343A40"/>
</svg>
