<?xml version="1.0" encoding="utf-8"?>
<!-- Generator: Adobe Illustrator 25.0.0, SVG Export Plug-In . SVG Version: 6.00 Build 0)  -->
<svg version="1.1" id="Layer_1" xmlns="http://www.w3.org/2000/svg" xmlns:xlink="http://www.w3.org/1999/xlink" x="0px" y="0px"
	 viewBox="0 0 424.3 376.5" style="enable-background:new 0 0 424.3 376.5;" xml:space="preserve">
<style type="text/css">
	.st0{fill:#3F3F3F;}
	.st1{fill:#555555;}
</style>
<g id="Layer_1_1_">
	<path class="st0" d="M82.4,75.8c11.3,4.5,20.1,10.2,31.2,20.4l9.1-2.9c-11.5-10.5-23-19.4-35-23c-26.7-8-39.7-21.1-36-55.9
		l-4.2-0.4C43.2,66.9,57.7,66,82.4,75.8z"/>
	<path class="st0" d="M425.4,207.6c0,69.4-59.1,116.8-219.9,117.4S1.2,275.5,1.2,206.1S41,85.3,204.5,86S425.4,138.2,425.4,207.6z"
		/>
	<path class="st1" d="M395.1,206c0,63.4-27.1,112.9-183,113.5S31.9,268.1,31.9,204.7S53.7,89.2,212.1,89.8S395.1,142.5,395.1,206z"
		/>
	<path class="st0" d="M63.7,14.4c0,6.6-6.5,12-14.4,12s-14.4-5.4-14.4-12s6.5-12,14.4-12S63.7,7.7,63.7,14.4z"/>
	<path class="st0" d="M339.6,49.7C335.7,71,317.9,86.4,297,96.1l10.3,0.1c22.7-10.5,35.9-22,39.7-44.7c3-18.3,5.3-33.4,25.8-34.3
		l-0.2-4.2C346.6,14.1,343,31.4,339.6,49.7z"/>
	<path class="st0" d="M388.5,16.8c0,6.6-6.5,12-14.4,12s-14.4-5.4-14.4-12s6.5-12,14.4-12S388.5,10.1,388.5,16.8z"/>
	<path class="st0" d="M359.6,204.4c-3.3-46.5-51.3-85.5-154.1-83.1C104.1,123.6,66,160,69.3,206.5s48.1,87,148.2,83.1
		C322.8,285.5,363,250.8,359.6,204.4z M210.4,260.8c-51.6,0-92.7-28.7-92.7-58s41.5-54.8,93.1-54.8s91.4,26.6,91.4,56
		S262,260.8,210.4,260.8z"/>
</g>
<g id="Layer_5">
	<path class="st1" d="M96.2,369.6c0.1,3.6-2.7,6.6-6.3,6.8c-0.2,0-0.4,0-0.6,0c-4.2,0-6.5-2.3-6.5-6.5c0-1.1,0.1-2.1,0.2-3.2
		l4.1,0.3c-0.1,0.8-0.2,1.7-0.2,2.5c0,2.2,0.8,2.8,2,2.8c1.1-0.1,1.9-1,1.8-2c0,0,0-0.1,0-0.1v-0.4c0-1.9-0.9-3.2-3.6-5.9
		s-4.3-4.8-4.3-7.7v-0.2c0-3.6,2.9-6.5,6.5-6.5c0.1,0,0.2,0,0.4,0c4.5,0,6.6,2.9,6.6,6.5c0,1-0.1,2.1-0.2,3.1l-4-0.3
		c0.1-0.8,0.2-1.6,0.2-2.5c0-2.2-0.9-2.8-2.1-2.8c-0.9-0.1-1.8,0.6-1.9,1.5c0,0.2,0,0.3,0,0.5v0.2c0,1.4,0.8,2.7,3.1,4.7
		c2.9,2.5,4.8,5.4,4.8,8.8L96.2,369.6z"/>
	<path class="st1" d="M114,354.1h-4.5V376H104v-21.9h-4.4v-4.3H114V354.1z"/>
	<path class="st1" d="M128.9,376h-11.4v-26.1h11.3v4.3H123v6.1h5v4.3h-5v7.1h6L128.9,376z"/>
	<path class="st1" d="M140,366.9h-1.9v9.1h-5.5v-26.1h6.8c4.6,0,6.9,2.1,6.9,8.3C146.4,364.6,143.9,366.9,140,366.9z M139.1,354.1
		h-1v8.6h1c1.2,0,1.9-1.1,1.9-4.6C141.1,355,140.4,354.1,139.1,354.1z"/>
	<path class="st1" d="M164.4,376H159v-11.3h-3.3V376h-5.5v-26.1h5.5v10.5h3.3v-10.5h5.5V376z"/>
	<path class="st1" d="M180.5,376h-11.4v-26.1h11.3v4.3h-5.9v6.1h5v4.3h-5v7.1h6V376z"/>
	<path class="st1" d="M198.6,376h-4.8l-4.4-14.1h-0.2V376h-4.8v-26.1h5.3l4,12.2h0.2v-12.2h4.8L198.6,376z"/>
	<path class="st1" d="M231.6,349.9l-3.8,26.1h-5.4l-1.7-14.5h-0.3l-1.7,14.5h-5.4l-3.8-26.1h5.4l1.5,16.8h0.2l1.9-16.8h4.1l1.9,16.9
		h0.1l1.6-16.9H231.6z"/>
	<path class="st1" d="M240.4,376h-5.5v-26.1h5.5V376z"/>
	<path class="st1" d="M256.5,376h-11.4v-26.1h5.5v21.9h5.9V376z"/>
	<path class="st1" d="M274,369.6c0,4.3-2.5,6.3-6.8,6.3H260v-26.1h7c4.5,0,6.9,2.3,6.9,6.9L274,369.6z M268.5,356.6
		c0-1.9-0.5-2.5-2-2.5h-1v17.6h1c1.3,0,2-0.5,2-1.9V356.6z"/>
	<path class="st1" d="M287.1,376c-0.3-0.4-0.4-0.9-0.4-1.5c-0.1-2.3-0.1-3.3-0.2-4.9c-0.1-2.9-0.7-3.9-2-3.9h-0.7V376h-5.5v-26.1
		h7.7c3.9,0,6.2,2.4,6.2,6.7c0,3.7-0.9,5.9-3.8,6.9v0.1c2.9,0.6,3.4,2.4,3.4,5.8v2c-0.1,1.6,0.1,3.1,0.5,4.6L287.1,376z M285,354.1
		h-1.1v7.3h1c1.4,0,2-1.1,2-4C286.9,354.8,286.1,354.1,285,354.1z"/>
	<path class="st1" d="M301.8,376h-5.5v-26.1h5.5V376z"/>
	<path class="st1" d="M313.1,376.5c-3.7,0-6.8-1.9-6.8-6.8v-13.3c0-5.1,3.1-7,6.8-7s6.3,1.8,6.3,6.4c0,1.1-0.1,2.1-0.2,3.2l-4.2-0.3
		c0.1-0.7,0.2-1.3,0.1-2c0-2.4-0.5-3.2-1.7-3.2c-0.9,0-1.7,0.8-1.7,1.7c0,0.1,0,0.1,0,0.2v14.9c0,1.2,0.7,2,1.7,2s1.7-0.7,1.7-3.2
		c0-0.7,0-1.4-0.2-2.1l4-0.3c0.3,1,0.4,2.1,0.3,3.2C319.4,374.6,316.6,376.5,313.1,376.5z"/>
	<path class="st1" d="M337.7,376h-5.6l-2.7-10.8l-0.9,1.5v9.3h-5.4v-26.1h5.5v10h0.1l3.7-10h5.2l-4.3,10.5L337.7,376z"/>
</g>
<g id="Layer_3">
	<path class="st0" d="M195.8,190.7c0,8.2-8.5,14.8-18.9,14.8s-18.9-6.6-18.9-14.8s8.5-11.2,18.9-11.2S195.8,182.5,195.8,190.7z"/>
	<path class="st0" d="M262.5,191.3c0,8.2-8.5,14.8-18.9,14.8s-18.9-6.6-18.9-14.8s8.5-11.2,18.9-11.2S262.5,183.1,262.5,191.3z"/>
	<rect x="175.1" y="225.7" class="st0" width="68.8" height="5.8"/>
</g>
</svg>
