<svg xmlns="http://www.w3.org/2000/svg" viewBox="0 0 431.07 379.62"><defs><style>.a{fill:#fff;}</style></defs><path class="a" d="M301.78,496.83c0,4.74-3.4,7.78-7.94,7.78-4.81,0-7.46-2.65-7.46-7.46a19.07,19.07,0,0,1,.28-3.64l4.7.32a15.94,15.94,0,0,0-.2,2.88c0,2.49.95,3.2,2.29,3.2a2.22,2.22,0,0,0,2.09-2.49V497c0-2.17-1-3.67-4.18-6.71s-4.9-5.53-4.9-8.89v-.27a7.49,7.49,0,0,1,7.86-7.51c5.13,0,7.54,3.36,7.54,7.47a25.86,25.86,0,0,1-.24,3.59l-4.62-.32a17.51,17.51,0,0,0,.24-2.84c0-2.57-1-3.16-2.41-3.16a2,2,0,0,0-2.13,2.25v.2c0,1.66.87,3.08,3.51,5.45,3.28,2.92,5.57,6.2,5.57,10.07Z" transform="translate(-217.3 -125.11)"/><path class="a" d="M322.19,479h-5.13v25.12h-6.32V479h-5.09v-4.89h16.54Z" transform="translate(-217.3 -125.11)"/><path class="a" d="M339.4,504.14H326.29v-30h13V479h-6.75v7h5.73v5h-5.73v8.21h6.83Z" transform="translate(-217.3 -125.11)"/><path class="a" d="M352.15,493.71H350v10.43h-6.27v-30h7.81c5.33,0,7.94,2.41,7.94,9.51C359.5,491.11,356.58,493.71,352.15,493.71ZM351.09,479H350v9.88h1.11c1.34,0,2.21-1.31,2.21-5.3C353.34,480,352.55,479,351.09,479Z" transform="translate(-217.3 -125.11)"/><path class="a" d="M380.19,504.14h-6.28v-13h-3.79v13h-6.28v-30h6.28v12h3.79v-12h6.28Z" transform="translate(-217.3 -125.11)"/><path class="a" d="M398.66,504.14H385.55v-30h13V479h-6.75v7h5.73v5h-5.73v8.21h6.83Z" transform="translate(-217.3 -125.11)"/><path class="a" d="M419.39,504.14H413.9L408.81,488h-.28v16.19H403v-30h6.08l4.54,14h.27v-14h5.49Z" transform="translate(-217.3 -125.11)"/><path class="a" d="M457.33,474.13l-4.3,30h-6.2l-2-16.67h-.31l-2,16.67h-6.24l-4.3-30h6.2L440,493.48h.19l2.18-19.35H447l2.17,19.38h.15l1.86-19.38Z" transform="translate(-217.3 -125.11)"/><path class="a" d="M467.48,504.14H461.2v-30h6.28Z" transform="translate(-217.3 -125.11)"/><path class="a" d="M486,504.14H472.84v-30h6.28v25.11H486Z" transform="translate(-217.3 -125.11)"/><path class="a" d="M506.09,496.87c0,5-2.89,7.27-7.78,7.27h-8.25v-30h8.09c5.21,0,7.94,2.64,7.94,7.93Zm-6.28-15c0-2.14-.55-2.89-2.33-2.89h-1.15v20.22h1.15c1.54,0,2.33-.63,2.33-2.21Z" transform="translate(-217.3 -125.11)"/><path class="a" d="M521.21,504.14a3.22,3.22,0,0,1-.44-1.66c-.08-2.69-.11-3.79-.19-5.61-.16-3.32-.79-4.46-2.26-4.46h-.82v11.73h-6.28v-30H520c4.51,0,7.11,2.72,7.11,7.66,0,4.22-1,6.83-4.38,7.93v.12c3.28.71,3.95,2.81,3.95,6.71v2.26a15.94,15.94,0,0,0,.59,5.33ZM518.76,479H517.5v8.41h1.18c1.62,0,2.25-1.22,2.25-4.58C520.93,479.81,520.06,479,518.76,479Z" transform="translate(-217.3 -125.11)"/><path class="a" d="M538.07,504.14h-6.28v-30h6.28Z" transform="translate(-217.3 -125.11)"/><path class="a" d="M551,504.73c-4.27,0-7.78-2.14-7.78-7.86V481.59c0-5.84,3.59-8,7.81-8s7.23,2.1,7.23,7.39a23.88,23.88,0,0,1-.24,3.67l-4.77-.32a11.62,11.62,0,0,0,.15-2.29c0-2.76-.55-3.71-2-3.71-1.15,0-1.9.87-1.9,2.21V497.7c0,1.38.75,2.29,1.94,2.29s1.93-.79,1.93-3.71a11.84,11.84,0,0,0-.19-2.37l4.66-.32a15,15,0,0,1,.39,3.67C558.24,502.59,555.08,504.73,551,504.73Z" transform="translate(-217.3 -125.11)"/><path class="a" d="M579.29,504.14h-6.44l-3-12.4-1.07,1.69v10.71H562.5v-30h6.28v11.49h.16l4.3-11.49h5.93l-4.94,12Z" transform="translate(-217.3 -125.11)"/><path class="a" d="M310.89,196.06c11.53,4.57,14.62,10.81,16.36,23.39l28.31-4.82c-11.69-10.71-29.46-24.41-41.59-28-27.17-8.11-42.66-1.62-38.86-37l-8.32-1.47C266.26,198.08,285.8,186.12,310.89,196.06Z" transform="translate(-217.3 -125.11)"/><path class="a" d="M288.72,138.45c0,6.71-6.56,12.15-14.66,12.15s-14.65-5.44-14.65-12.15,6.57-9.4,14.66-9.4S288.72,131.73,288.72,138.45Z" transform="translate(-217.3 -125.11)"/><path class="a" d="M539.15,168.08c-.93,22,4.91,36.31-16.42,46.19l29,5.18c2.21-10.73-9.49-43.7-1.28-59.37,5.65-10.78,15.47-14.89,36-16l-3.65-8.92C555.74,141.52,540.08,146.08,539.15,168.08Z" transform="translate(-217.3 -125.11)"/><path class="a" d="M608.25,137.27c0,6.71-3.77,12.15-11.87,12.15s-14.64-5.44-14.64-12.15,6.56-12.16,14.64-12.16S608.25,130.54,608.25,137.27Z" transform="translate(-217.3 -125.11)"/><path class="a" d="M423.89,208.79c-166.08,2.06-206.59,51.52-206.59,122s44.19,120.8,207.62,120.81c178.42,0,223.45-48.78,223.45-119.3S614.18,206.43,423.89,208.79ZM430.68,446c-158.37.6-183.09-52.22-183.09-116.64s22.14-116.7,183.09-116.71c163.8,0,185.87,53.63,185.87,118S589.05,445.38,430.68,446Z" transform="translate(-217.3 -125.11)"/><path class="a" d="M580.38,329.05c-.18-47.34-42.59-84.68-147.45-84.57-103.15.1-147.85,37.54-147.65,84.57.21,47.36,45.88,86.57,147.65,86.81C539.42,416.11,580.56,376.39,580.38,329.05ZM434.94,386.22C382.5,386.22,345,358.84,345,329s17.71-57.24,89.71-57.24,90.4,27.42,90.4,57.24S487.38,386.22,434.94,386.22Z" transform="translate(-217.3 -125.11)"/><path class="a" d="M418.17,317.59c0,8.29-8.59,15-19.19,15s-19.19-6.72-19.19-15,8.59-11.38,19.19-11.38S418.17,309.3,418.17,317.59Z" transform="translate(-217.3 -125.11)"/><path class="a" d="M485.88,318.2c0,8.29-8.6,15-19.2,15s-19.19-6.72-19.19-15,8.6-11.38,19.19-11.38S485.88,309.91,485.88,318.2Z" transform="translate(-217.3 -125.11)"/><rect class="a" x="180.57" y="228.05" width="69.93" height="5.93"/></svg>