<?xml version="1.0" encoding="utf-8"?>
<!-- Generator: Adobe Illustrator 25.0.0, SVG Export Plug-In . SVG Version: 6.00 Build 0)  -->
<svg version="1.1" id="Layer_1" xmlns="http://www.w3.org/2000/svg" xmlns:xlink="http://www.w3.org/1999/xlink" x="0px" y="0px"
	 viewBox="0 0 424.3 398" style="enable-background:new 0 0 424.3 398;" xml:space="preserve">
<style type="text/css">
	.st0{fill:#686868;}
	.st1{fill:#3F3F3F;}
</style>
<g id="Layer_5">
	<path class="st0" d="M24,386.6c0,6.8-4.9,11.2-11.4,11.2c-6.9,0-10.7-3.8-10.7-10.7c0-1.7,0.1-3.5,0.4-5.2l6.8,0.5
		c-0.2,1.4-0.3,2.7-0.3,4.1c0,3.6,1.4,4.6,3.3,4.6s3-1.6,3-3.6v-0.6c0-3.1-1.5-5.3-6-9.6s-7-7.9-7-12.8v-0.4c0-5.4,4-10.8,11.3-10.8
		s10.8,4.8,10.8,10.7c0,1.7-0.1,3.4-0.3,5.2l-6.6-0.5c0.2-1.3,0.3-2.7,0.3-4.1c0-3.7-1.5-4.5-3.4-4.5s-3.1,1.1-3.1,3.2v0.3
		c0,2.4,1.2,4.4,5,7.8c4.7,4.2,8,8.9,8,14.5L24,386.6z"/>
	<path class="st0" d="M53.3,361.1h-7.4v36.1h-9.1v-36.1h-7.3v-7h23.8L53.3,361.1z"/>
	<path class="st0" d="M78,397.1H59.2V354h18.7v7h-9.7v10h8.2v7.1h-8.2V390H78L78,397.1z"/>
	<path class="st0" d="M96.3,382.1h-3.1v15h-9V354h11.2c7.7,0,11.4,3.5,11.4,13.7C106.8,378.4,102.6,382.1,96.3,382.1z M94.8,361.1
		h-1.5v14.2h1.5c1.9,0,3.2-1.9,3.2-7.6C98,362.5,96.9,361.1,94.8,361.1z"/>
	<path class="st0" d="M136.5,397.1h-9v-18.7h-5.5v18.7h-9V354h9v17.3h5.5V354h9V397.1z"/>
	<path class="st0" d="M163.1,397.1h-18.8V354H163v7h-9.7v10h8.2v7.1h-8.2V390h9.8L163.1,397.1z"/>
	<path class="st0" d="M192.8,397.1h-7.9l-7.3-23.2h-0.4v23.2h-7.9V354h8.7l6.5,20.1h0.4V354h7.9V397.1z"/>
	<path class="st0" d="M247.3,354l-6.2,43.1h-8.9l-2.8-23.9h-0.5l-2.8,23.9h-9l-6.2-43.1h8.9l2.6,27.8h0.3l3.1-27.8h6.7l3.1,27.8h0.2
		l2.7-27.8H247.3z"/>
	<path class="st0" d="M261.9,397.1h-9V354h9V397.1z"/>
	<path class="st0" d="M288.4,397.1h-18.8V354h9v36.1h9.8L288.4,397.1z"/>
	<path class="st0" d="M317.3,386.7c0,7.1-4.1,10.4-11.2,10.4h-11.9V354h11.6c7.5,0,11.4,3.8,11.4,11.4V386.7z M308.3,365.2
		c0-3.1-0.8-4.1-3.3-4.1h-1.7v29h1.7c2.2,0,3.3-0.9,3.3-3.2L308.3,365.2z"/>
	<path class="st0" d="M339,397.1c-0.4-0.7-0.6-1.5-0.6-2.4c-0.1-3.9-0.2-5.4-0.3-8c-0.2-4.8-1.1-6.4-3.2-6.4h-1.2v16.8h-9V354h12.6
		c6.5,0,10.2,3.9,10.2,11c0,6.1-1.5,9.8-6.3,11.4v0.2c4.7,1,5.7,4,5.7,9.6v3.2c0,4,0.3,6.4,0.8,7.6L339,397.1z M335.5,361.1h-1.8v12
		h1.7c2.3,0,3.2-1.8,3.2-6.6C338.6,362.2,337.4,361.1,335.5,361.1L335.5,361.1z"/>
	<path class="st0" d="M363.2,397.1h-9V354h9V397.1z"/>
	<path class="st0" d="M381.8,398c-6.1,0-11.2-3.1-11.2-11.3v-21.9c0-8.4,5.2-11.5,11.2-11.5s10.4,3,10.4,10.6c0,1.8-0.1,3.5-0.3,5.3
		l-6.9-0.5c0.2-1.1,0.3-2.2,0.2-3.3c0-4-0.8-5.3-2.8-5.3c-1.6,0-2.7,1.2-2.7,3.2v24.6c0,2,1.1,3.3,2.8,3.3s2.8-1.1,2.8-5.3
		c0-1.1-0.1-2.3-0.3-3.4l6.7-0.5c0.4,1.7,0.6,3.5,0.6,5.3C392.2,394.9,387.7,398,381.8,398z"/>
	<path class="st0" d="M422.4,397.1h-9.2l-4.3-17.8l-1.5,2.4v15.4h-9V354h9v16.5h0.2l6.2-16.5h8.5l-7.1,17.3L422.4,397.1z"/>
</g>
<g id="Layer_3">
	<path class="st1" d="M81.2,73.4c11.3,4.5,20.1,10.2,31.2,20.4l9.1-2.9c-11.5-10.5-23-19.4-35-23c-26.7-8-39.7-21.1-36-55.9
		l-4.2-0.4C42,64.5,56.5,63.6,81.2,73.4z"/>
	<path class="st1" d="M424.3,205.2c0,69.4-59.1,116.8-219.9,117.4S0,273.1,0,203.7S39.9,82.9,203.3,83.6S424.3,135.8,424.3,205.2z"
		/>
	<path class="st0" d="M394,203.6c0,63.4-27.1,112.9-183,113.5S30.8,265.7,30.8,202.3S52.6,86.8,211,87.4S394,140.1,394,203.6z"/>
	<path class="st1" d="M62.6,12c0,6.6-6.5,12-14.4,12s-14.4-5.4-14.4-12S40.2,0,48.1,0S62.6,5.3,62.6,12z"/>
	<path class="st1" d="M338.4,47.3c-3.9,21.3-21.6,36.7-42.6,46.4l10.3,0.1c22.7-10.5,35.9-22,39.7-44.7c3-18.3,5.3-33.4,25.8-34.3
		l-0.2-4.2C345.5,11.7,341.8,29,338.4,47.3z"/>
	<path class="st1" d="M387.3,14.4c0,6.6-6.5,12-14.4,12s-14.4-5.4-14.4-12s6.5-12,14.4-12S387.3,7.7,387.3,14.4z"/>
	<path class="st1" d="M358.5,202c-3.3-46.5-51.3-85.5-154.1-83.1c-101.5,2.4-139.6,38.7-136.2,85.2s48.1,87,148.2,83.1
		C321.6,283.1,361.8,248.4,358.5,202z M209.3,258.4c-51.6,0-92.7-28.7-92.7-58s41.5-54.8,93.1-54.8s91.4,26.6,91.4,56
		S260.9,258.4,209.3,258.4L209.3,258.4z"/>
	<path class="st1" d="M195.8,190.7c0,8.2-8.5,14.8-18.9,14.8s-18.9-6.6-18.9-14.8s8.5-11.2,18.9-11.2S195.8,182.5,195.8,190.7z"/>
	<path class="st1" d="M262.5,191.3c0,8.2-8.5,14.8-18.9,14.8s-18.9-6.6-18.9-14.8s8.5-11.2,18.9-11.2S262.5,183.1,262.5,191.3z"/>
	<rect x="175.1" y="225.7" class="st1" width="68.8" height="5.8"/>
</g>
</svg>
