<svg width="407" height="133" viewBox="0 0 407 133" fill="none" xmlns="http://www.w3.org/2000/svg">
<path d="M356.708 132V72.3636H369.316V98.6584H370.102L391.563 72.3636H406.676L384.546 99.0661L406.938 132H391.855L375.519 107.482L369.316 115.053V132H356.708Z" fill="white"/>
<path d="M347.666 93.2422H334.912C334.679 91.5921 334.203 90.1264 333.485 88.8452C332.767 87.5445 331.845 86.438 330.719 85.5256C329.593 84.6131 328.292 83.9143 326.817 83.429C325.361 82.9436 323.779 82.701 322.07 82.701C318.984 82.701 316.295 83.4678 314.004 85.0014C311.714 86.5156 309.937 88.7287 308.675 91.6406C307.414 94.5331 306.783 98.0469 306.783 102.182C306.783 106.433 307.414 110.005 308.675 112.898C309.957 115.79 311.743 117.974 314.033 119.45C316.324 120.925 318.974 121.663 321.983 121.663C323.672 121.663 325.235 121.439 326.671 120.993C328.127 120.546 329.418 119.896 330.544 119.042C331.67 118.168 332.602 117.11 333.339 115.868C334.097 114.625 334.621 113.208 334.912 111.616L347.666 111.675C347.336 114.412 346.511 117.052 345.191 119.595C343.89 122.119 342.134 124.38 339.92 126.38C337.727 128.36 335.106 129.933 332.058 131.097C329.03 132.243 325.603 132.815 321.779 132.815C316.46 132.815 311.704 131.612 307.511 129.205C303.337 126.797 300.037 123.313 297.61 118.751C295.203 114.189 293.999 108.666 293.999 102.182C293.999 95.6785 295.222 90.1458 297.668 85.5838C300.114 81.0218 303.434 77.5469 307.627 75.1591C311.82 72.7519 316.538 71.5483 321.779 71.5483C325.235 71.5483 328.438 72.0336 331.388 73.0042C334.359 73.9749 336.989 75.392 339.28 77.2557C341.571 79.0999 343.434 81.3615 344.871 84.0405C346.327 86.7194 347.258 89.7867 347.666 93.2422Z" fill="white"/>
<path d="M284.674 72.3636V132H272.065V72.3636H284.674Z" fill="white"/>
<path d="M218.252 132V72.3636H241.781C246.285 72.3636 250.128 73.1693 253.312 74.7806C256.515 76.3724 258.952 78.634 260.621 81.5654C262.31 84.4773 263.154 87.9037 263.154 91.8445C263.154 95.8047 262.3 99.2117 260.592 102.065C258.884 104.9 256.408 107.074 253.167 108.588C249.944 110.102 246.042 110.859 241.461 110.859H225.707V100.726H239.422C241.829 100.726 243.829 100.396 245.421 99.7358C247.013 99.0758 248.197 98.0857 248.973 96.7656C249.769 95.4456 250.167 93.8052 250.167 91.8445C250.167 89.8644 249.769 88.1949 248.973 86.836C248.197 85.477 247.003 84.4482 245.392 83.7493C243.8 83.031 241.791 82.6719 239.364 82.6719H230.861V132H218.252ZM250.458 104.861L265.28 132H251.361L236.86 104.861H250.458Z" fill="white"/>
<path d="M179.735 132H158.594V72.3636H179.91C185.908 72.3636 191.072 73.5575 195.401 75.9453C199.73 78.3137 203.059 81.7207 205.389 86.1662C207.738 90.6118 208.912 95.9309 208.912 102.124C208.912 108.336 207.738 113.674 205.389 118.139C203.059 122.604 199.711 126.031 195.343 128.418C190.994 130.806 185.792 132 179.735 132ZM171.203 121.197H179.211C182.938 121.197 186.073 120.537 188.616 119.217C191.179 117.877 193.101 115.81 194.382 113.014C195.683 110.199 196.333 106.569 196.333 102.124C196.333 97.7169 195.683 94.1158 194.382 91.3203C193.101 88.5249 191.188 86.4671 188.645 85.147C186.102 83.827 182.967 83.1669 179.24 83.1669H171.203V121.197Z" fill="white"/>
<path d="M112.069 132V72.3636H124.678V121.604H150.245V132H112.069Z" fill="white"/>
<path d="M101.695 72.3636V132H89.0867V72.3636H101.695Z" fill="white"/>
<path d="M17.5476 132L0.483643 72.3636H14.2571L24.1285 113.8H24.6236L35.5142 72.3636H47.3075L58.169 113.888H58.6932L68.5646 72.3636H82.3381L65.2741 132H52.9858L41.6292 93.0092H41.1633L29.8359 132H17.5476Z" fill="white"/>
<path d="M398.213 1.36365V61H387.322L361.377 23.4652H360.94V61H348.332V1.36365H359.397L385.138 38.8693H385.663V1.36365H398.213Z" fill="white"/>
<path d="M294.843 61V1.36365H335.027V11.7592H307.451V25.9695H332.96V36.3651H307.451V50.6044H335.144V61H294.843Z" fill="white"/>
<path d="M230.383 61V1.36365H242.991V25.9695H268.587V1.36365H281.167V61H268.587V36.3651H242.991V61H230.383Z" fill="white"/>
<path d="M174.011 61V1.36365H197.539C202.063 1.36365 205.916 2.22752 209.1 3.95527C212.284 5.6636 214.71 8.04168 216.38 11.0895C218.069 14.1179 218.913 17.6122 218.913 21.5725C218.913 25.5327 218.059 29.027 216.35 32.0554C214.642 35.0838 212.167 37.4425 208.925 39.1314C205.703 40.8203 201.801 41.6648 197.219 41.6648H182.223V31.5604H195.181C197.607 31.5604 199.607 31.143 201.179 30.3083C202.771 29.4541 203.955 28.2796 204.732 26.7848C205.528 25.2706 205.926 23.5332 205.926 21.5725C205.926 19.5923 205.528 17.8646 204.732 16.3892C203.955 14.8944 202.771 13.7394 201.179 12.924C199.587 12.0893 197.569 11.6719 195.122 11.6719H186.62V61H174.011Z" fill="white"/>
<path d="M120.522 61V1.36365H160.707V11.7592H133.131V25.9695H158.639V36.3651H133.131V50.6044H160.823V61H120.522Z" fill="white"/>
<path d="M60.1973 11.7592V1.36365H109.176V11.7592H90.9182V61H78.4551V11.7592H60.1973Z" fill="white"/>
<path d="M37.8076 18.5149C37.5747 16.1659 36.5749 14.3411 34.8083 13.0405C33.0418 11.7398 30.6443 11.0895 27.6159 11.0895C25.5581 11.0895 23.8206 11.3807 22.4035 11.9631C20.9864 12.526 19.8992 13.3122 19.1421 14.3217C18.4045 15.3312 18.0356 16.4765 18.0356 17.7578C17.9968 18.8255 18.22 19.7573 18.7053 20.5533C19.2101 21.3492 19.8992 22.0383 20.7728 22.6207C21.6464 23.1837 22.6559 23.6787 23.8012 24.1058C24.9466 24.5135 26.1696 24.8629 27.4703 25.1541L32.8282 26.4354C35.4295 27.0177 37.8173 27.7943 39.9916 28.7649C42.1658 29.7355 44.0489 30.9294 45.6407 32.3466C47.2326 33.7637 48.4653 35.4332 49.3389 37.3551C50.2319 39.277 50.6881 41.4803 50.7075 43.9652C50.6881 47.6148 49.7562 50.7791 47.912 53.4581C46.0872 56.1176 43.4471 58.1851 39.9916 59.6605C36.5555 61.1165 32.4108 61.8444 27.5576 61.8444C22.7432 61.8444 18.55 61.1068 14.9781 59.6314C11.4255 58.156 8.64947 55.972 6.64995 53.0795C4.66983 50.1676 3.63124 46.5665 3.53418 42.2763H15.7352C15.8711 44.2758 16.4438 45.9453 17.4532 47.2848C18.4821 48.6049 19.8507 49.6046 21.559 50.2841C23.2868 50.9441 25.2378 51.2741 27.412 51.2741C29.5474 51.2741 31.4014 50.9635 32.9738 50.3423C34.5657 49.7211 35.7984 48.8572 36.672 47.7507C37.5456 46.6442 37.9823 45.3726 37.9823 43.9361C37.9823 42.5966 37.5844 41.4706 36.7884 40.5582C36.0119 39.6458 34.8666 38.8693 33.3524 38.2287C31.8576 37.5881 30.0231 37.0057 27.8488 36.4815L21.3552 34.8508C16.3273 33.6278 12.3573 31.7157 9.4454 29.1143C6.53347 26.513 5.08722 23.009 5.10663 18.6023C5.08722 14.9915 6.04815 11.8369 7.98944 9.13848C9.95014 6.44009 12.6388 4.33379 16.0555 2.81959C19.4722 1.30538 23.3547 0.548279 27.7032 0.548279C32.1294 0.548279 35.9925 1.30538 39.2927 2.81959C42.6123 4.33379 45.1942 6.44009 47.0384 9.13848C48.8827 11.8369 49.8339 14.9623 49.8921 18.5149H37.8076Z" fill="white"/>
</svg>
