<svg width="796" height="606" viewBox="0 0 796 606" fill="none" xmlns="http://www.w3.org/2000/svg">
<g clip-path="url(#clip0_150_2485)">
<path d="M152.326 137.789C173.62 146.241 190.037 156.947 210.9 176.068L227.917 170.621C206.322 150.824 184.671 134.089 162.288 127.383C112.12 112.395 87.7858 87.7146 94.8027 22.3513L86.9791 21.5061C78.8928 121.147 106.003 119.382 152.345 137.77L152.326 137.789Z" fill="white"/>
<path d="M796 385.455C796 515.825 685.175 604.76 383.375 606C81.5943 607.221 0 513.026 0 382.657C0 252.287 74.7839 155.782 381.499 157.022C688.196 158.243 796.019 255.086 796.019 385.437L796 385.455Z" fill="white"/>
<path d="M739.134 382.394C739.134 501.513 688.346 594.411 395.89 595.538C103.433 596.665 57.7861 499.015 57.7861 379.915C57.7861 260.815 98.6865 163.033 395.89 164.16C693.093 165.268 739.134 263.294 739.134 382.394Z" fill="black"/>
<path d="M117.411 22.4827C117.411 34.8792 105.309 44.9466 90.3375 44.9466C75.3657 44.9466 63.2832 34.898 63.2832 22.4827C63.2832 10.0674 75.4032 0 90.3375 0C105.272 0 117.411 10.0487 117.411 22.4827Z" fill="white"/>
<path d="M634.969 88.7662C627.614 128.848 594.331 157.717 554.95 175.974L574.218 176.049C616.695 156.346 641.629 134.746 648.74 92.1283C654.462 57.7938 658.702 29.4697 697.201 27.7793L696.844 19.8906C648.139 21.9191 641.273 54.4693 634.987 88.7474L634.969 88.7662Z" fill="white"/>
<path d="M726.676 26.9717C726.676 39.3682 714.556 49.4356 699.584 49.4356C684.613 49.4356 672.549 39.3682 672.549 26.9717C672.549 14.5752 684.65 4.48901 699.584 4.48901C714.519 4.48901 726.676 14.5377 726.676 26.9717Z" fill="white"/>
<path d="M672.548 379.351C666.32 292.05 576.282 218.704 383.45 223.193C193.02 227.645 121.632 295.975 127.861 383.277C134.089 470.597 218.217 546.628 406.002 539.36C603.412 531.678 678.796 466.652 672.567 379.351H672.548ZM392.606 485.285C295.777 485.285 218.629 431.435 218.629 376.271C218.629 321.106 296.509 273.436 393.338 273.436C490.167 273.436 564.838 323.417 564.838 378.543C564.838 433.67 489.454 485.303 392.606 485.303V485.285Z" fill="white"/>
<path d="M367.372 358.164C367.372 373.491 351.499 385.906 331.931 385.906C312.363 385.906 296.49 373.491 296.49 358.164C296.49 342.838 312.363 337.128 331.931 337.128C351.499 337.128 367.372 342.838 367.372 358.164Z" fill="white"/>
<path d="M492.399 359.291C492.399 374.618 476.527 387.033 456.958 387.033C437.39 387.033 421.518 374.618 421.518 359.291C421.518 343.965 437.39 338.255 456.958 338.255C476.527 338.255 492.399 343.965 492.399 359.291Z" fill="white"/>
<path d="M457.596 423.922H328.46V434.891H457.596V423.922Z" fill="white"/>
</g>
<defs>
<clipPath id="clip0_150_2485">
<rect width="796" height="606" fill="white"/>
</clipPath>
</defs>
</svg>
