<svg width="395" height="136" viewBox="0 0 395 136" fill="none" xmlns="http://www.w3.org/2000/svg">
<path d="M346.385 134.744V77.0128H358.588V102.467H359.349L380.12 77.0128H394.746L373.328 102.862L395 134.744H380.401L364.591 111.009L358.588 118.338V134.744H346.385Z" fill="white"/>
<path d="M337.27 97.159H324.994C324.769 95.5496 324.312 94.12 323.62 92.8704C322.929 91.6018 322.042 90.5225 320.958 89.6326C319.874 88.7427 318.622 88.0611 317.202 87.5877C315.801 87.1144 314.278 86.8777 312.634 86.8777C309.663 86.8777 307.075 87.6256 304.87 89.1214C302.666 90.5983 300.956 92.7568 299.741 95.5969C298.527 98.4181 297.92 101.845 297.92 105.878C297.92 110.025 298.527 113.509 299.741 116.33C300.975 119.151 302.694 121.281 304.898 122.72C307.103 124.159 309.654 124.879 312.55 124.879C314.175 124.879 315.679 124.661 317.062 124.225C318.463 123.79 319.706 123.156 320.79 122.323C321.873 121.471 322.77 120.439 323.48 119.227C324.209 118.015 324.713 116.633 324.994 115.08L337.27 115.137C336.952 117.807 336.158 120.382 334.887 122.862C333.635 125.324 331.944 127.529 329.814 129.48C327.703 131.411 325.181 132.945 322.247 134.081C319.332 135.198 316.034 135.756 312.354 135.756C307.234 135.756 302.656 134.582 298.62 132.235C294.603 129.887 291.427 126.488 289.091 122.039C286.774 117.589 285.616 112.202 285.616 105.878C285.616 99.5352 286.793 94.139 289.147 89.6894C291.501 85.2399 294.696 81.8507 298.732 79.5218C302.768 77.1739 307.309 76 312.354 76C315.679 76 318.762 76.4734 321.602 77.4201C324.461 78.3668 326.993 79.749 329.198 81.5667C331.403 83.3654 333.196 85.5712 334.579 88.1842C335.98 90.7971 336.877 93.7887 337.27 97.159Z" fill="white"/>
<path d="M276.5 77.0128V134.744H264.346V77.0128H276.5Z" fill="white"/>
<path d="M211.679 134.744V77.0128H234.482C238.847 77.0128 242.572 77.7927 245.658 79.3525C248.762 80.8935 251.123 83.0828 252.741 85.9205C254.378 88.7394 255.196 92.0563 255.196 95.8712C255.196 99.7048 254.368 103.003 252.713 105.765C251.057 108.509 248.658 110.614 245.516 112.08C242.393 113.546 238.612 114.278 234.172 114.278H218.904V104.469H232.196C234.529 104.469 236.467 104.149 238.01 103.51C239.552 102.871 240.7 101.913 241.453 100.635C242.224 99.3572 242.61 97.7692 242.61 95.8712C242.61 93.9543 242.224 92.3382 241.453 91.0227C240.7 89.7072 239.543 88.7112 237.981 88.0347C236.439 87.3393 234.491 86.9917 232.14 86.9917H223.899V134.744H211.679ZM242.892 108.472L257.256 134.744H243.767L229.713 108.472H242.892Z" fill="white"/>
<path d="M174.373 134.744H153.948V77.0128H174.542C180.338 77.0128 185.327 78.1686 189.509 80.48C193.692 82.7727 196.909 86.0708 199.159 90.3743C201.429 94.6778 202.564 99.827 202.564 105.822C202.564 111.835 201.429 117.003 199.159 121.326C196.909 125.648 193.673 128.965 189.453 131.276C185.252 133.588 180.225 134.744 174.373 134.744ZM166.13 124.286H173.867C177.468 124.286 180.497 123.647 182.954 122.369C185.43 121.072 187.287 119.071 188.525 116.364C189.781 113.64 190.41 110.125 190.41 105.822C190.41 101.556 189.781 98.0699 188.525 95.3638C187.287 92.6576 185.439 90.6656 182.982 89.3877C180.525 88.1098 177.496 87.4709 173.895 87.4709H166.13V124.286Z" fill="white"/>
<path d="M108.372 134.744V77.0128H120.749V124.68H145.846V134.744H108.372Z" fill="white"/>
<path d="M98.2439 77.0128V134.744H86.0901V77.0128H98.2439Z" fill="white"/>
<path d="M16.68 134.744L0 77.0128H13.4635L23.1129 117.126H23.5968L34.2424 77.0128H45.7704L56.3875 117.21H56.8999L66.5492 77.0128H80.0128L63.3328 134.744H51.3209L40.2199 96.9987H39.7645L28.6919 134.744H16.68Z" fill="white"/>
<path d="M394.679 0.815308V60.4517H383.788L357.843 22.9169H357.406V60.4517H344.797V0.815308H355.862L381.604 38.321H382.128V0.815308H394.679Z" fill="white"/>
<path d="M291.308 60.4517V0.815308H331.493V11.2109H303.917V25.4211H329.425V35.8167H303.917V50.0561H331.609V60.4517H291.308Z" fill="white"/>
<path d="M226.849 60.4517V0.815308H239.457V25.4211H265.053V0.815308H277.633V60.4517H265.053V35.8167H239.457V60.4517H226.849Z" fill="white"/>
<path d="M170.477 60.4517V0.815308H194.005C198.528 0.815308 202.382 1.67918 205.565 3.40693C208.749 5.11526 211.176 7.49334 212.845 10.5412C214.534 13.5696 215.379 17.0639 215.379 21.0241C215.379 24.9843 214.524 28.4787 212.816 31.5071C211.108 34.5355 208.633 36.8941 205.391 38.5831C202.168 40.272 198.266 41.1164 193.685 41.1164H178.688V31.012H191.646C194.073 31.012 196.072 30.5947 197.645 29.7599C199.237 28.9057 200.421 27.7313 201.197 26.2365C201.993 24.7223 202.391 22.9848 202.391 21.0241C202.391 19.044 201.993 17.3163 201.197 15.8409C200.421 14.3461 199.237 13.191 197.645 12.3757C196.053 11.5409 194.034 11.1235 191.588 11.1235H183.085V60.4517H170.477Z" fill="white"/>
<path d="M116.988 60.4517V0.815308H157.172V11.2109H129.596V25.4211H155.105V35.8167H129.596V50.0561H157.289V60.4517H116.988Z" fill="white"/>
<path d="M56.6631 11.2109V0.815308H105.642V11.2109H87.384V60.4517H74.9209V11.2109H56.6631Z" fill="white"/>
<path d="M34.2734 17.9666C34.0405 15.6177 33.0407 13.7929 31.2741 12.4922C29.5076 11.1915 27.1101 10.5412 24.0817 10.5412C22.0239 10.5412 20.2865 10.8324 18.8693 11.4148C17.4522 11.9777 16.3651 12.764 15.608 13.7734C14.8703 14.7829 14.5014 15.9283 14.5014 17.2095C14.4626 18.2772 14.6858 19.209 15.1712 20.005C15.6759 20.8009 16.3651 21.4901 17.2386 22.0724C18.1122 22.6354 19.1217 23.1304 20.2671 23.5575C21.4124 23.9652 22.6354 24.3146 23.9361 24.6058L29.294 25.8871C31.8954 26.4695 34.2831 27.246 36.4574 28.2166C38.6316 29.1873 40.5147 30.3812 42.1065 31.7983C43.6984 33.2154 44.9311 34.8849 45.8047 36.8068C46.6977 38.7287 47.1539 40.9321 47.1733 43.4169C47.1539 47.0665 46.2221 50.2308 44.3778 52.9098C42.553 55.5694 39.9129 57.6368 36.4574 59.1122C33.0213 60.5682 28.8767 61.2962 24.0234 61.2962C19.2091 61.2962 15.0159 60.5585 11.4439 59.0831C7.89134 57.6077 5.11529 55.4238 3.11577 52.5312C1.13565 49.6193 0.0970645 46.0182 0 41.728H12.201C12.3369 43.7275 12.9096 45.397 13.919 46.7365C14.9479 48.0566 16.3165 49.0563 18.0249 49.7358C19.7526 50.3958 21.7036 50.7259 23.8778 50.7259C26.0133 50.7259 27.8672 50.4152 29.4396 49.794C31.0315 49.1728 32.2642 48.3089 33.1378 47.2024C34.0114 46.0959 34.4482 44.8243 34.4482 43.3878C34.4482 42.0483 34.0502 40.9224 33.2543 40.0099C32.4778 39.0975 31.3324 38.321 29.8182 37.6804C28.3234 37.0398 26.4889 36.4574 24.3146 35.9332L17.821 34.3026C12.7931 33.0795 8.82316 31.1674 5.91122 28.5661C2.99929 25.9647 1.55304 22.4607 1.57245 18.054C1.55304 14.4432 2.51397 11.2886 4.45526 8.5902C6.41596 5.89181 9.10464 3.78551 12.5213 2.27131C15.938 0.757103 19.8206 0 24.169 0C28.5952 0 32.4583 0.757103 35.7585 2.27131C39.0781 3.78551 41.66 5.89181 43.5043 8.5902C45.3485 11.2886 46.2997 14.4141 46.358 17.9666H34.2734Z" fill="white"/>
</svg>
